<?xml version="1.0" encoding="UTF-8" standalone="no"?>
<!DOCTYPE svg PUBLIC "-//W3C//DTD SVG 1.1//EN"
 "http://www.w3.org/Graphics/SVG/1.1/DTD/svg11.dtd">
<!-- Generated by graphviz version 2.40.1 (20161225.0304)
 -->
<!-- Title: summary Pages: 1 -->
<svg width="1389pt" height="188pt"
 viewBox="0.00 0.00 1389.08 188.00" xmlns="http://www.w3.org/2000/svg" xmlns:xlink="http://www.w3.org/1999/xlink">
<g id="graph0" class="graph" transform="scale(1 1) rotate(0) translate(4 184)">
<title>summary</title>
<polygon fill="#ffffff" stroke="transparent" points="-4,4 -4,-184 1385.083,-184 1385.083,4 -4,4"/>
<!-- nl.fontys.sebidao -->
<g id="node1" class="node">
<title>nl.fontys.sebidao</title>
<ellipse fill="none" stroke="#000000" cx="349.4925" cy="-162" rx="71.4873" ry="18"/>
<text text-anchor="middle" x="349.4925" y="-158.3" font-family="Times,serif" font-size="14.00" fill="#000000">nl.fontys.sebidao</text>
</g>
<!-- java.base (java.base) -->
<g id="node2" class="node">
<title>java.base (java.base)</title>
<ellipse fill="none" stroke="#000000" cx="84.4925" cy="-18" rx="84.485" ry="18"/>
<text text-anchor="middle" x="84.4925" y="-14.3" font-family="Times,serif" font-size="14.00" fill="#000000">java.base (java.base)</text>
</g>
<!-- nl.fontys.sebidao&#45;&gt;java.base (java.base) -->
<g id="edge1" class="edge">
<title>nl.fontys.sebidao&#45;&gt;java.base (java.base)</title>
<path fill="none" stroke="#000000" d="M319.3516,-145.6216C271.3906,-119.5597 177.6804,-68.6379 124.2713,-39.6156"/>
<polygon fill="#000000" stroke="#000000" points="125.8809,-36.507 115.4232,-34.8076 122.5387,-42.6576 125.8809,-36.507"/>
</g>
<!-- java.logging (java.logging) -->
<g id="node3" class="node">
<title>java.logging (java.logging)</title>
<ellipse fill="none" stroke="#000000" cx="293.4925" cy="-18" rx="106.6812" ry="18"/>
<text text-anchor="middle" x="293.4925" y="-14.3" font-family="Times,serif" font-size="14.00" fill="#000000">java.logging (java.logging)</text>
</g>
<!-- nl.fontys.sebidao&#45;&gt;java.logging (java.logging) -->
<g id="edge2" class="edge">
<title>nl.fontys.sebidao&#45;&gt;java.logging (java.logging)</title>
<path fill="none" stroke="#000000" d="M342.5133,-144.0535C332.914,-119.3696 315.5468,-74.7111 304.2712,-45.7167"/>
<polygon fill="#000000" stroke="#000000" points="307.4462,-44.2242 300.5597,-36.1727 300.9222,-46.7613 307.4462,-44.2242"/>
</g>
<!-- java.sql (java.sql) -->
<g id="node4" class="node">
<title>java.sql (java.sql)</title>
<ellipse fill="none" stroke="#000000" cx="491.4925" cy="-18" rx="73.387" ry="18"/>
<text text-anchor="middle" x="491.4925" y="-14.3" font-family="Times,serif" font-size="14.00" fill="#000000">java.sql (java.sql)</text>
</g>
<!-- nl.fontys.sebidao&#45;&gt;java.sql (java.sql) -->
<g id="edge3" class="edge">
<title>nl.fontys.sebidao&#45;&gt;java.sql (java.sql)</title>
<path fill="none" stroke="#000000" d="M366.9045,-144.3428C391.9225,-118.9724 438.1632,-72.0804 466.7307,-43.1105"/>
<polygon fill="#000000" stroke="#000000" points="469.4087,-45.3795 473.9381,-35.8017 464.4245,-40.4645 469.4087,-45.3795"/>
</g>
<!-- org.postgresql.jdbc -->
<g id="node5" class="node">
<title>org.postgresql.jdbc</title>
<ellipse fill="none" stroke="#000000" cx="556.4925" cy="-90" rx="78.7863" ry="18"/>
<text text-anchor="middle" x="556.4925" y="-86.3" font-family="Times,serif" font-size="14.00" fill="#000000">org.postgresql.jdbc</text>
</g>
<!-- nl.fontys.sebidao&#45;&gt;org.postgresql.jdbc -->
<g id="edge4" class="edge">
<title>nl.fontys.sebidao&#45;&gt;org.postgresql.jdbc</title>
<path fill="none" stroke="#000000" d="M391.6315,-147.3429C423.939,-136.1056 468.7307,-120.5258 503.4728,-108.4416"/>
<polygon fill="#000000" stroke="#000000" points="504.6915,-111.7235 512.9867,-105.1325 502.3918,-105.112 504.6915,-111.7235"/>
</g>
<!-- org.postgresql.jdbc&#45;&gt;java.base (java.base) -->
<g id="edge5" class="edge">
<title>org.postgresql.jdbc&#45;&gt;java.base (java.base)</title>
<path fill="none" stroke="#000000" d="M487.521,-81.2195C411.4426,-71.2907 285.4789,-54.1318 177.4925,-36 170.5236,-34.8299 163.2741,-33.5454 156.0345,-32.2181"/>
<polygon fill="#000000" stroke="#000000" points="156.6672,-28.7758 146.1958,-30.388 155.3871,-35.6577 156.6672,-28.7758"/>
</g>
<!-- org.postgresql.jdbc&#45;&gt;java.logging (java.logging) -->
<g id="edge6" class="edge">
<title>org.postgresql.jdbc&#45;&gt;java.logging (java.logging)</title>
<path fill="none" stroke="#000000" d="M505.7835,-76.1177C464.0645,-64.6965 404.6326,-48.4262 359.258,-36.0042"/>
<polygon fill="#000000" stroke="#000000" points="360.0788,-32.6002 349.5095,-33.3354 358.2304,-39.3518 360.0788,-32.6002"/>
</g>
<!-- org.postgresql.jdbc&#45;&gt;java.sql (java.sql) -->
<g id="edge9" class="edge">
<title>org.postgresql.jdbc&#45;&gt;java.sql (java.sql)</title>
<path fill="none" stroke="#000000" d="M540.4251,-72.2022C532.5537,-63.4832 522.9372,-52.8311 514.3192,-43.2849"/>
<polygon fill="#000000" stroke="#000000" points="516.6741,-40.6704 507.3751,-35.593 511.4782,-45.3611 516.6741,-40.6704"/>
</g>
<!-- java.naming (java.naming) -->
<g id="node6" class="node">
<title>java.naming (java.naming)</title>
<ellipse fill="none" stroke="#000000" cx="1274.4925" cy="-18" rx="106.6812" ry="18"/>
<text text-anchor="middle" x="1274.4925" y="-14.3" font-family="Times,serif" font-size="14.00" fill="#000000">java.naming (java.naming)</text>
</g>
<!-- org.postgresql.jdbc&#45;&gt;java.naming (java.naming) -->
<g id="edge7" class="edge">
<title>org.postgresql.jdbc&#45;&gt;java.naming (java.naming)</title>
<path fill="none" stroke="#000000" d="M631.8671,-84.8543C746.1854,-76.6878 970.1489,-59.2706 1159.4925,-36 1168.7965,-34.8565 1178.5045,-33.5365 1188.1647,-32.1413"/>
<polygon fill="#000000" stroke="#000000" points="1188.8118,-35.5839 1198.1953,-30.6645 1187.7922,-28.6585 1188.8118,-35.5839"/>
</g>
<!-- java.security.sasl (java.security.sasl) -->
<g id="node7" class="node">
<title>java.security.sasl (java.security.sasl)</title>
<ellipse fill="none" stroke="#000000" cx="722.4925" cy="-18" rx="139.9756" ry="18"/>
<text text-anchor="middle" x="722.4925" y="-14.3" font-family="Times,serif" font-size="14.00" fill="#000000">java.security.sasl (java.security.sasl)</text>
</g>
<!-- org.postgresql.jdbc&#45;&gt;java.security.sasl (java.security.sasl) -->
<g id="edge8" class="edge">
<title>org.postgresql.jdbc&#45;&gt;java.security.sasl (java.security.sasl)</title>
<path fill="none" stroke="#000000" d="M593.3333,-74.0209C616.8977,-63.8001 647.7406,-50.4225 673.3768,-39.3032"/>
<polygon fill="#000000" stroke="#000000" points="674.7816,-42.509 682.5631,-35.3188 671.9961,-36.0871 674.7816,-42.509"/>
</g>
<!-- java.xml (java.xml) -->
<g id="node8" class="node">
<title>java.xml (java.xml)</title>
<ellipse fill="none" stroke="#000000" cx="961.4925" cy="-18" rx="81.4863" ry="18"/>
<text text-anchor="middle" x="961.4925" y="-14.3" font-family="Times,serif" font-size="14.00" fill="#000000">java.xml (java.xml)</text>
</g>
<!-- org.postgresql.jdbc&#45;&gt;java.xml (java.xml) -->
<g id="edge10" class="edge">
<title>org.postgresql.jdbc&#45;&gt;java.xml (java.xml)</title>
<path fill="none" stroke="#000000" d="M620.8358,-79.504C684.563,-68.9826 784.8899,-52.0802 871.4925,-36 878.0186,-34.7882 884.8039,-33.4942 891.5912,-32.1768"/>
<polygon fill="#000000" stroke="#000000" points="892.365,-35.5919 901.5068,-30.2368 891.0208,-28.7221 892.365,-35.5919"/>
</g>
<!-- not found -->
<g id="node9" class="node">
<title>not found</title>
<ellipse fill="none" stroke="#000000" cx="1105.4925" cy="-18" rx="44.6926" ry="18"/>
<text text-anchor="middle" x="1105.4925" y="-14.3" font-family="Times,serif" font-size="14.00" fill="#000000">not found</text>
</g>
<!-- org.postgresql.jdbc&#45;&gt;not found -->
<g id="edge11" class="edge">
<title>org.postgresql.jdbc&#45;&gt;not found</title>
<path fill="none" stroke="#000000" d="M634.0555,-86.6531C732.2105,-81.2531 906.0218,-67.7986 1051.4925,-36 1055.1339,-35.204 1058.8746,-34.2518 1062.6062,-33.2068"/>
<polygon fill="#000000" stroke="#000000" points="1063.8188,-36.497 1072.3883,-30.2669 1061.8041,-29.7932 1063.8188,-36.497"/>
</g>
</g>
</svg>
